<svg xmlns="http://www.w3.org/2000/svg" version="1.1" xmlns:xlink="http://www.w3.org/1999/xlink" xmlns:svgjs="http://svgjs.dev/svgjs" width="1000" height="257" viewBox="0 0 1000 257"><g transform="matrix(1,0,0,1,-0.6060491265141081,0.29768399196973405)"><svg viewBox="0 0 396 102" data-background-color="#ffffff" preserveAspectRatio="xMidYMid meet" height="257" width="1000" xmlns="http://www.w3.org/2000/svg" xmlns:xlink="http://www.w3.org/1999/xlink"><g id="tight-bounds" transform="matrix(1,0,0,1,0.239995454099585,-0.1181469540113369)"><svg viewBox="0 0 395.52 102.23629390802269" height="102.23629390802269" width="395.52"><g><svg viewBox="0 0 573.012149767877 148.1154898779748" height="102.23629390802269" width="395.52"><g transform="matrix(1,0,0,1,177.49214976787704,42.94842009243137)"><svg viewBox="0 0 395.52 62.218649693112056" height="62.218649693112056" width="395.52"><g id="textblocktransform"><svg viewBox="0 0 395.52 62.218649693112056" height="62.218649693112056" width="395.52" id="textblock"><g><svg viewBox="0 0 395.52 62.218649693112056" height="62.218649693112056" width="395.52"><g transform="matrix(1,0,0,1,0,0)"><svg width="395.52" viewBox="3.5 -34.29999923706055 219.92999267578125 34.599998474121094" height="62.218649693112056" data-palette-color="#6b7280"><path d="M3.5 0L3.5-33.85 23.6-33.85 23.6-29.35 9.45-29.35 9.45-19.9 21.1-19.9 20.35-15.35 9.45-15.35 9.45-4.5 24.35-4.5 24.35 0 3.5 0ZM25.4 0L38.4-33.85 43.1-33.85 56.15 0 49.8 0 46.7-8.85 34.5-8.85 31.3 0 25.4 0ZM36.1-13.25L45.15-13.25Q43.55-17.75 42.4-21.43 41.25-25.1 40.65-27.2L40.65-27.2Q39.95-24.95 38.8-21.3 37.65-17.65 36.1-13.25L36.1-13.25ZM69.15-34.3L69.15-34.3Q70.9-34.3 72.5-33.98 74.09-33.65 75.42-33.23 76.75-32.8 77.67-32.35 78.59-31.9 78.95-31.65L78.95-31.65 76.5-27.35 75.84-27.7Q75.2-28.05 74.15-28.5 73.09-28.95 71.84-29.3 70.59-29.65 69.45-29.65L69.45-29.65Q67.65-29.65 66.32-28.8 65-27.95 65-26.15L65-26.15Q65-23.9 66.45-22.48 67.9-21.05 71-19.85L71-19.85Q73-19.05 74.57-18.18 76.15-17.3 77.25-16.15 78.34-15 78.92-13.5 79.5-12 79.5-9.9L79.5-9.9Q79.5-8 78.77-6.15 78.05-4.3 76.62-2.88 75.2-1.45 73.09-0.58 71 0.3 68.25 0.3L68.25 0.3Q66.3 0.3 64.55-0.1 62.8-0.5 61.37-1.03 59.95-1.55 58.92-2.1 57.9-2.65 57.4-2.95L57.4-2.95 59.5-7.55 60.4-7.05Q61.3-6.55 62.6-5.95 63.9-5.35 65.34-4.85 66.8-4.35 67.84-4.35L67.84-4.35Q70.5-4.35 71.8-5.65 73.09-6.95 73.09-9.3L73.09-9.3Q73.09-10.4 72.75-11.23 72.4-12.05 71.75-12.65 71.09-13.25 70.17-13.73 69.25-14.2 68.09-14.65L68.09-14.65Q65.84-15.6 64.07-16.55 62.3-17.5 61.05-18.73 59.8-19.95 59.15-21.53 58.5-23.1 58.5-25.3L58.5-25.3Q58.5-27.15 59.3-28.78 60.1-30.4 61.5-31.63 62.9-32.85 64.84-33.58 66.8-34.3 69.15-34.3ZM90.24 0L90.24-12.95 79.74-33.85 86.19-33.85 93.29-18.5 100.54-33.85 106.84-33.85 96.19-12.7 96.19 0 90.24 0ZM110.34 0L110.34-33.85Q110.69-33.85 111.84-33.88 112.99-33.9 114.44-33.9 115.89-33.9 117.44-33.93 118.99-33.95 120.14-33.95L120.14-33.95Q128.64-33.95 132.74-29.73 136.84-25.5 136.84-17.15L136.84-17.15Q136.84-8.8 132.64-4.35 128.44 0.1 119.49 0.1L119.49 0.1Q117.94 0.1 116.47 0.08 114.99 0.05 113.77 0.05 112.54 0.05 111.64 0.03 110.74 0 110.34 0L110.34 0ZM119.44-29.5Q118.29-29.5 117.52-29.48 116.74-29.45 116.29-29.45L116.29-29.45 116.29-4.4Q116.84-4.35 117.72-4.35 118.59-4.35 120.24-4.35L120.24-4.35Q125.49-4.35 127.94-7.43 130.39-10.5 130.39-16.6L130.39-16.6Q130.39-19.5 129.81-21.88 129.24-24.25 127.92-25.95 126.59-27.65 124.52-28.58 122.44-29.5 119.44-29.5L119.44-29.5ZM162.39 0L162.39-15.4 148.44-15.4 148.44 0 142.49 0 142.49-33.85 148.44-33.85 148.44-19.75 162.39-19.75 162.39-33.85 168.34-33.85 168.34 0 162.39 0ZM196.99-30.7L193.94-27.05Q192.74-28.35 191.41-29.03 190.09-29.7 188.34-29.7L188.34-29.7Q186.19-29.7 184.71-28.73 183.24-27.75 182.34-26.03 181.44-24.3 181.03-22 180.64-19.7 180.64-17.05L180.64-17.05Q180.64-14.4 181.01-12.1 181.39-9.8 182.31-8.05 183.24-6.3 184.81-5.3 186.39-4.3 188.78-4.3L188.78-4.3Q189.94-4.3 190.99-4.5 192.04-4.7 192.91-4.93 193.79-5.15 194.36-5.35 194.94-5.55 195.09-5.6L195.09-5.6 196.49-1.4 195.84-1.15Q195.19-0.9 194.01-0.58 192.84-0.25 191.21 0.03 189.59 0.3 187.64 0.3L187.64 0.3Q180.94 0.3 177.56-3.98 174.19-8.25 174.19-16.5L174.19-16.5Q174.19-20.45 175.09-23.73 175.99-27 177.81-29.35 179.64-31.7 182.41-33 185.19-34.3 188.94-34.3L188.94-34.3Q191.94-34.3 193.86-33.2 195.79-32.1 196.99-30.7L196.99-30.7ZM201.48 0L201.48-33.85Q201.83-33.85 203.08-33.88 204.33-33.9 205.88-33.9 207.43-33.9 208.98-33.93 210.53-33.95 211.53-33.95L211.53-33.95Q217.63-33.95 220.53-31.23 223.43-28.5 223.43-23.75L223.43-23.75Q223.43-21.45 222.63-19.53 221.83-17.6 220.26-16.2 218.68-14.8 216.36-14.03 214.03-13.25 210.93-13.25L210.93-13.25 207.43-13.25 207.43 0 201.48 0ZM207.43-29.65L207.43-17.7 211.28-17.7Q214.43-17.7 215.78-19.35 217.13-21 217.13-23.55L217.13-23.55Q217.13-24.7 216.83-25.8 216.53-26.9 215.81-27.78 215.08-28.65 213.86-29.18 212.63-29.7 210.78-29.7L210.78-29.7Q209.68-29.7 208.86-29.7 208.03-29.7 207.43-29.65L207.43-29.65Z" opacity="1" transform="matrix(1,0,0,1,0,0)" fill="#6b7280" class="wordmark-text-0" data-fill-palette-color="primary" id="text-0"></path></svg></g></svg></g></svg></g></svg></g><g><svg viewBox="0 0 148.1154898779748 148.1154898779748" height="148.1154898779748" width="148.1154898779748"><g><svg></svg></g><g id="icon-0"><svg viewBox="0 0 148.1154898779748 148.1154898779748" height="148.1154898779748" width="148.1154898779748"><g><path d="M0 74.058c0-40.901 33.157-74.058 74.058-74.058 40.901 0 74.058 33.157 74.057 74.058 0 40.901-33.157 74.058-74.057 74.057-40.901 0-74.058-33.157-74.058-74.057zM74.058 142.505c37.802 0 68.447-30.645 68.447-68.447 0-37.802-30.645-68.447-68.447-68.447-37.802 0-68.447 30.645-68.447 68.447 0 37.802 30.645 68.447 68.447 68.447z" data-fill-palette-color="accent" fill="#000000" stroke="transparent"></path></g><g transform="matrix(1,0,0,1,45.015544885582365,34.3005000673795)"><svg viewBox="0 0 58.084400106810065 79.51448974321579" height="79.51448974321579" width="58.084400106810065"><g><svg xmlns="http://www.w3.org/2000/svg" xmlns:xlink="http://www.w3.org/1999/xlink" version="1.1" x="0" y="0" viewBox="12.414999008178711 1.5069999694824219 70.48699951171875 96.49299621582031" enable-background="new 0 0 100 100" xml:space="preserve" height="79.51448974321579" width="58.084400106810065" class="icon-s-0" data-fill-palette-color="accent" id="s-0"><g fill="#000000" data-fill-palette-color="accent"><g fill="#000000" data-fill-palette-color="accent"><path fill-rule="evenodd" clip-rule="evenodd" d="M67.497 66.347c-2.743 0-5.309 0.775-7.528 2.111L41.635 55.387c0.67-1.787 1.052-3.728 1.052-5.764 0-2.252-0.457-4.39-1.267-6.328l17.873-12.848c2.418 1.71 5.333 2.709 8.473 2.709 8.358 0 15.136-7.085 15.136-15.825S76.124 1.507 67.766 1.507c-8.362 0-15.136 7.085-15.136 15.825 0 1.254 0.154 2.469 0.418 3.639l-19.587 14.08c-1.816-0.806-3.813-1.253-5.91-1.253-8.36 0-15.136 7.082-15.136 15.825 0 8.739 6.775 15.825 15.136 15.825 2.412 0 4.685-0.606 6.709-1.656l18.863 13.449c-0.486 1.554-0.759 3.208-0.759 4.931C52.365 90.915 59.143 98 67.497 98c8.362 0 15.137-7.085 15.137-15.828C82.634 73.433 75.859 66.347 67.497 66.347z" fill="#000000" data-fill-palette-color="accent"></path></g></g></svg></g></svg></g></svg></g></svg></g></svg></g><defs></defs></svg><rect width="395.52" height="102.23629390802269" fill="none" stroke="none" visibility="hidden"></rect></g></svg></g></svg>